<svg width="151" height="150" viewBox="0 0 151 150" fill="none" xmlns="http://www.w3.org/2000/svg">
<g clip-path="url(#clip0_53_3)">
<path d="M147.42 61.7713L144.155 53.1223C143.218 51.4409 141.668 50.185 139.827 49.6166C137.985 49.0481 135.995 49.211 134.271 50.0713L127.226 52.9131V18.75C127.226 14.3988 125.493 10.2258 122.41 7.14903C119.327 4.07226 115.146 2.34375 110.786 2.34375H92.0293C87.6692 2.34375 83.4876 4.07226 80.4045 7.14903C77.3214 10.2258 75.5894 14.3988 75.5894 18.75V135.938H129.574V79.6875L144.846 71.7261C146.472 70.7121 147.645 69.1139 148.124 67.2614C148.603 65.409 148.351 63.4437 147.42 61.7713Z" fill="#FE9E4A"/>
<path d="M16.8428 44.5312C20.734 44.5312 23.8885 41.3833 23.8885 37.5C23.8885 33.6167 20.734 30.4688 16.8428 30.4688C12.9516 30.4688 9.79712 33.6167 9.79712 37.5C9.79712 41.3833 12.9516 44.5312 16.8428 44.5312Z" fill="#FE9E4A"/>
<path d="M58.0495 42.4831L65.3915 46.49L58.0495 50.4973L54.0341 57.8241L50.0189 50.4973L42.677 46.49L50.0189 42.4831L54.0341 35.1562L58.0495 42.4831Z" fill="#90E3F5"/>
<path opacity="0.2" d="M106.088 99.6094H115.483V90.2344H106.088V78.5156C106.088 74.1644 104.356 69.9914 101.273 66.9147C98.1902 63.8379 94.0086 62.1094 89.6485 62.1094H75.5894V135.938H100.341L106.088 99.6094Z" fill="#232626"/>
<path d="M99.0425 93.75V82.0312C99.0425 77.68 97.3105 73.507 94.2274 70.4303C91.1443 67.3535 86.9627 65.625 82.6026 65.625H32.1084V93.75H99.0425Z" fill="#A95A18"/>
<path d="M5.09985 103.125L9.79699 147.656H50.2751L54.4197 103.125H5.09985Z" fill="#90E3F5"/>
<path d="M54.4198 103.125L50.2751 147.656H91.9968L99.0425 103.125H54.4198Z" fill="#0F8CA8"/>
<path d="M2.75146 93.75H108.437V103.125H2.75146V93.75Z" fill="#087182"/>
<path d="M75.2538 119.229L79.2692 111.902L83.2844 119.229L90.6263 123.236L83.2844 127.243L79.2692 134.57L75.2538 127.243L67.9119 123.236L75.2538 119.229Z" fill="#FE9E4A"/>
<path d="M23.8884 65.625H35.6313C39.9914 65.625 44.173 67.3535 47.2561 70.4303C50.3392 73.507 52.0712 77.68 52.0712 82.0312V93.75H7.44849V82.0312C7.44849 77.68 9.18055 73.507 12.2636 70.4303C15.3467 67.3535 19.5283 65.625 23.8884 65.625Z" fill="#FE9E4A"/>
<path d="M19.1914 82.0312H23.8885V86.7188H19.1914V82.0312Z" fill="black"/>
<path d="M33.2827 82.0312H37.9798V86.7188H33.2827V82.0312Z" fill="black"/>
<path d="M26.2371 75H30.9342V79.6875H26.2371V75Z" fill="black"/>
<path d="M2.7514 105.469H2.98625L7.46145 147.901C7.52216 148.477 7.79441 149.011 8.2257 149.398C8.65699 149.786 9.21677 150 9.7971 150H91.9969C92.5562 150 93.097 149.801 93.5222 149.438C93.9473 149.075 94.2289 148.573 94.3161 148.022L95.858 138.281H129.574C130.197 138.281 130.794 138.034 131.235 137.595C131.675 137.155 131.923 136.559 131.923 135.938V81.1075L145.933 73.8035C145.987 73.7756 146.04 73.7456 146.091 73.7136C148.201 72.3988 149.733 70.334 150.377 67.936C151.021 65.538 150.729 62.9855 149.561 60.7937L146.352 52.2949C146.312 52.1876 146.263 52.0834 146.207 51.9832C144.989 49.7853 142.971 48.1388 140.571 47.3842C138.17 46.6297 135.571 46.825 133.311 47.9297L129.574 49.4373V18.75C129.568 13.7789 127.587 9.01308 124.065 5.498C120.542 1.98292 115.767 0.00566045 110.785 0L92.0292 0C87.0479 0.00566045 82.2723 1.98292 78.75 5.498C75.2277 9.01308 73.2463 13.7789 73.2407 18.75V63.2812H37.9799V63.433C37.201 63.3337 36.4166 63.283 35.6313 63.2812H23.8885C18.9072 63.2869 14.1316 65.2642 10.6093 68.7793C7.08696 72.2943 5.10564 77.0602 5.09996 82.0312V91.4062H2.7514C2.12852 91.4062 1.53115 91.6532 1.09071 92.0927C0.65027 92.5323 0.402832 93.1284 0.402832 93.75L0.402832 103.125C0.402832 103.747 0.65027 104.343 1.09071 104.782C1.53115 105.222 2.12852 105.469 2.7514 105.469ZM7.70863 105.469H51.8429L48.1348 145.312H11.9108L7.70863 105.469ZM89.9901 145.312H52.8522L56.5606 105.469H96.2942L89.9901 145.312ZM77.9378 18.75C77.942 15.0217 79.428 11.4473 82.0697 8.81094C84.7115 6.17461 88.2932 4.69169 92.0292 4.6875H110.785C114.521 4.69169 118.103 6.17461 120.745 8.81094C123.387 11.4473 124.873 15.0217 124.877 18.75V51.3311L112.253 56.4205L114.015 60.7667L135.152 52.2442C135.211 52.221 135.267 52.1954 135.322 52.1675C136.48 51.5867 137.816 51.4658 139.06 51.8291C140.303 52.1924 141.363 53.0129 142.024 54.1251L145.224 62.598C145.265 62.7053 145.313 62.8095 145.369 62.9098C146.001 64.0445 146.178 65.3766 145.863 66.6364C145.548 67.8961 144.765 68.9893 143.672 69.6946L128.488 77.6101C128.107 77.8082 127.788 78.1065 127.566 78.4728C127.343 78.8391 127.226 79.2592 127.225 79.6875V133.594H96.5995L101.049 105.469H108.437C109.06 105.469 109.657 105.222 110.098 104.782C110.538 104.343 110.785 103.747 110.785 103.125V93.75C110.785 93.1284 110.538 92.5323 110.098 92.0927C109.657 91.6532 109.06 91.4062 108.437 91.4062H101.391V82.0312C101.385 77.0602 99.4042 72.2943 95.8819 68.7793C92.3596 65.2642 87.5839 63.2869 82.6026 63.2812H77.9378V18.75ZM82.6026 67.9688C86.3386 67.9729 89.9204 69.4559 92.5621 72.0922C95.2039 74.7285 96.6898 78.3029 96.694 82.0312V91.4062H54.4199V82.0312C54.4202 79.3691 53.8511 76.7376 52.7507 74.3125C51.6503 71.8874 50.0439 69.7246 48.0388 67.9688H82.6026ZM9.7971 82.0312C9.80129 78.3029 11.2873 74.7285 13.929 72.0922C16.5707 69.4559 20.1525 67.9729 23.8885 67.9688H35.6313C39.3673 67.9729 42.9491 69.4559 45.5908 72.0922C48.2326 74.7285 49.7185 78.3029 49.7227 82.0312V91.4062H9.7971V82.0312ZM5.09996 96.0938H106.088V100.781H5.09996V96.0938Z" fill="black"/>
<path d="M106.088 114.844H110.786V126.562H106.088V114.844Z" fill="black"/>
<path d="M117.831 114.844H122.528V126.562H117.831V114.844Z" fill="black"/>
<path d="M94.3455 28.125H99.0426V39.8438H94.3455V28.125Z" fill="black"/>
<path d="M106.088 28.125H110.786V39.8438H106.088V28.125Z" fill="black"/>
<path d="M16.8428 46.875C18.7008 46.875 20.517 46.3252 22.0619 45.295C23.6068 44.2649 24.8109 42.8007 25.5219 41.0877C26.233 39.3746 26.419 37.4896 26.0565 35.671C25.694 33.8525 24.7993 32.182 23.4855 30.8709C22.1717 29.5598 20.4978 28.6669 18.6755 28.3051C16.8532 27.9434 14.9643 28.1291 13.2477 28.8386C11.5311 29.5482 10.064 30.7498 9.03171 32.2915C7.99945 33.8332 7.44849 35.6458 7.44849 37.5C7.45128 39.9856 8.44193 42.3685 10.2031 44.1261C11.9643 45.8836 14.3521 46.8722 16.8428 46.875ZM16.8428 32.8125C17.7718 32.8125 18.6799 33.0874 19.4523 33.6025C20.2248 34.1176 20.8268 34.8496 21.1823 35.7062C21.5379 36.5627 21.6309 37.5052 21.4496 38.4145C21.2684 39.3238 20.821 40.159 20.1641 40.8146C19.5072 41.4701 18.6703 41.9166 17.7591 42.0974C16.848 42.2783 15.9035 42.1855 15.0452 41.8307C14.1869 41.4759 13.4534 40.8751 12.9372 40.1042C12.4211 39.3334 12.1456 38.4271 12.1456 37.5C12.147 36.2572 12.6423 35.0658 13.5229 34.187C14.4035 33.3082 15.5974 32.8139 16.8428 32.8125Z" fill="black"/>
<path d="M41.5501 48.5467L48.2884 52.2243L51.9736 58.9488C52.1758 59.3179 52.4739 59.6258 52.8364 59.8403C53.199 60.0548 53.6127 60.168 54.0342 60.168C54.4557 60.168 54.8694 60.0548 55.2319 59.8403C55.5945 59.6258 55.8925 59.3179 56.0948 58.9488L59.7799 52.2243L66.5183 48.5467C66.8881 48.3449 67.1966 48.0474 67.4116 47.6856C67.6266 47.3238 67.74 46.9109 67.74 46.4903C67.74 46.0697 67.6266 45.6568 67.4116 45.295C67.1966 44.9332 66.8881 44.6358 66.5183 44.434L59.7799 40.7563L56.0948 34.0318C55.8925 33.6628 55.5945 33.3549 55.2319 33.1403C54.8694 32.9258 54.4557 32.8126 54.0342 32.8126C53.6127 32.8126 53.199 32.9258 52.8364 33.1403C52.4739 33.3549 52.1758 33.6628 51.9736 34.0318L48.2884 40.7563L41.5501 44.434C41.1803 44.6358 40.8717 44.9332 40.6568 45.295C40.4418 45.6568 40.3284 46.0697 40.3284 46.4903C40.3284 46.9109 40.4418 47.3238 40.6568 47.6856C40.8717 48.0474 41.1803 48.3449 41.5501 48.5467ZM51.146 44.5394C51.5401 44.3244 51.8641 44.001 52.0796 43.6078L54.0345 40.0409L55.9891 43.6078C56.2045 44.0012 56.5285 44.3246 56.9226 44.5397L60.4968 46.4906L56.9226 48.4412C56.5286 48.6563 56.2046 48.9796 55.9891 49.3728L54.0345 52.9394L52.0796 49.3725C51.864 48.9793 51.5399 48.6559 51.1457 48.4409L47.5715 46.4903L51.146 44.5394Z" fill="black"/>
<path d="M91.7531 121.179L85.0148 117.502L81.3296 110.777C81.1274 110.408 80.8294 110.1 80.4668 109.886C80.1042 109.671 79.6905 109.558 79.269 109.558C78.8476 109.558 78.4338 109.671 78.0713 109.886C77.7087 110.1 77.4107 110.408 77.2085 110.777L73.5233 117.502L66.7849 121.179C66.4151 121.381 66.1066 121.678 65.8916 122.04C65.6767 122.402 65.5632 122.815 65.5632 123.236C65.5632 123.656 65.6767 124.069 65.8916 124.431C66.1066 124.793 66.4151 125.09 66.7849 125.292L73.5233 128.97L77.2085 135.694C77.4107 136.063 77.7087 136.371 78.0713 136.586C78.4338 136.8 78.8476 136.913 79.269 136.913C79.6905 136.913 80.1042 136.8 80.4668 136.586C80.8294 136.371 81.1274 136.063 81.3296 135.694L85.0148 128.97L91.7531 125.292C92.1229 125.09 92.4315 124.793 92.6465 124.431C92.8614 124.069 92.9748 123.656 92.9748 123.236C92.9748 122.815 92.8614 122.402 92.6465 122.04C92.4315 121.678 92.1229 121.381 91.7531 121.179ZM82.1572 125.186C81.7631 125.401 81.4392 125.724 81.2236 126.117L79.2688 129.684L77.3139 126.117C77.0983 125.724 76.7744 125.401 76.3803 125.186L72.8061 123.235L76.3803 121.284C76.7744 121.069 77.0983 120.745 77.3139 120.352L79.2688 116.785L81.2236 120.352C81.4392 120.745 81.7631 121.069 82.1572 121.284L85.7314 123.235L82.1572 125.186Z" fill="black"/>
<path d="M9.79712 51.5625H14.4943V56.25H9.79712V51.5625Z" fill="black"/>
<path d="M35.6313 112.5H40.3285V117.188H35.6313V112.5Z" fill="black"/>
</g>
<defs>
<clipPath id="clip0_53_3">
<rect width="150.308" height="150" fill="white" transform="translate(0.402832)"/>
</clipPath>
</defs>
</svg>
