<svg width="151" height="150" viewBox="0 0 151 150" fill="none" xmlns="http://www.w3.org/2000/svg">
<g clip-path="url(#clip0_53_39)">
<path d="M133.695 85.9092H19.752L17.3276 105.303H128.847L133.695 85.9092Z" fill="#FF826E"/>
<path d="M34.2979 30.1516H99.7547V85.9092H24.6006L34.2979 30.1516Z" fill="#E6E9ED"/>
<path d="M99.7547 35.0001V30.1516H34.2979L33.4539 35.0001H99.7547Z" fill="#CCD1D9"/>
<path d="M25.4446 81.0608L24.6006 85.9093H99.7547V81.0608H25.4446Z" fill="#CCD1D9"/>
<path d="M99.7547 85.9092V30.1516H86.557C85.7225 31.5839 85.2087 33.2257 85.2087 35.0001V85.9092H99.7547Z" fill="#CCD1D9"/>
<path d="M143.393 85.9092V59.6426C143.393 57.7972 142.867 55.992 141.878 54.4355L127.852 32.3959C126.961 30.998 125.419 30.1516 123.76 30.1516H94.9063C92.2274 30.1516 90.0576 32.3214 90.0576 35.0001V85.9092H143.393Z" fill="#FF826E"/>
<path d="M90.0576 81.0605H143.393V85.909H90.0576V81.0605Z" fill="#FC6E51"/>
<path d="M133.695 85.9092H127.78L124.87 100.455H17.9337L17.3276 105.303H128.847L133.695 85.9092Z" fill="#FC6E51"/>
<path d="M127.78 85.9091H143.393V76.2122H129.719L127.78 85.9091Z" fill="#FC6E51"/>
<path d="M121.574 105.303H128.847L133.695 81.0605H143.393C146.071 81.0605 148.241 83.2303 148.241 85.909L140.968 119.848H14.9033C13.5657 119.848 12.479 118.762 12.479 117.424V107.727C12.479 106.39 13.5657 105.303 14.9033 105.303H121.574Z" fill="#FCD770"/>
<path d="M65.8143 112.576C65.8143 121.948 58.217 129.545 48.8441 129.545C39.4711 129.545 31.8738 121.948 31.8738 112.576C31.8738 103.203 39.4711 95.606 48.8441 95.606C58.217 95.606 65.8143 103.203 65.8143 112.576Z" fill="#656D78"/>
<path d="M56.117 112.576C56.117 116.592 52.8605 119.848 48.844 119.848C44.8275 119.848 41.571 116.592 41.571 112.576C41.571 108.559 44.8275 105.303 48.844 105.303C52.8605 105.303 56.117 108.559 56.117 112.576Z" fill="#AAB2BD"/>
<path d="M123.998 112.576C123.998 121.948 116.401 129.545 107.028 129.545C97.6549 129.545 90.0576 121.948 90.0576 112.576C90.0576 103.203 97.6549 95.606 107.028 95.606C116.401 95.606 123.998 103.203 123.998 112.576Z" fill="#656D78"/>
<path d="M114.301 112.576C114.301 116.592 111.044 119.848 107.028 119.848C103.011 119.848 99.7549 116.592 99.7549 112.576C99.7549 108.559 103.011 105.303 107.028 105.303C111.044 105.303 114.301 108.559 114.301 112.576Z" fill="#AAB2BD"/>
<path d="M99.7549 66.5151H133.695V59.2423L121.574 39.8484H99.7549V66.5151Z" fill="#E6E9ED"/>
<path d="M27.0249 30.1516H104.603V20.4546H29.4492L27.0249 30.1516Z" fill="#FCD770"/>
<path d="M48.844 102.879C43.4958 102.879 39.1467 107.228 39.1467 112.576C39.1467 117.924 43.4958 122.273 48.844 122.273C54.1922 122.273 58.5413 117.924 58.5413 112.576C58.5413 107.228 54.1922 102.879 48.844 102.879ZM48.844 117.424C46.1699 117.424 43.9954 115.25 43.9954 112.576C43.9954 109.902 46.1699 107.727 48.844 107.727C51.5181 107.727 53.6927 109.902 53.6927 112.576C53.6927 115.25 51.5181 117.424 48.844 117.424Z" fill="black"/>
<path d="M107.028 102.879C101.68 102.879 97.3306 107.228 97.3306 112.576C97.3306 117.924 101.68 122.273 107.028 122.273C112.376 122.273 116.725 117.924 116.725 112.576C116.725 107.228 112.376 102.879 107.028 102.879ZM107.028 117.424C104.354 117.424 102.179 115.25 102.179 112.576C102.179 109.902 104.354 107.727 107.028 107.727C109.702 107.727 111.877 109.902 111.877 112.576C111.877 115.25 109.702 117.424 107.028 117.424Z" fill="black"/>
<path d="M145.817 79.0826V59.6425C145.817 57.3319 145.16 55.0805 143.921 53.1333L129.894 31.0925C128.551 28.9832 126.258 27.7249 123.76 27.7249H107.028V18.0303H27.5565L23.92 32.5757H31.4155L30.5715 37.4242H10.0547V42.2727H29.7287L28.0406 51.9697H10.0547V56.8182H27.199L25.5121 66.5151H10.0547V71.3636H24.6681L22.5599 83.4848H17.6118L15.1874 102.879H14.9033C12.2292 102.879 10.0547 105.053 10.0547 107.727V117.424C10.0547 120.098 12.2292 122.273 14.9033 122.273H32.0725C35.432 128.06 41.6822 131.97 48.8439 131.97C56.0056 131.97 62.2558 128.06 65.6153 122.273H90.2587C93.6194 128.06 99.8684 131.97 107.03 131.97C114.192 131.97 120.442 128.06 123.802 122.273H142.932L150.615 86.4181L150.666 85.9091C150.666 82.7533 148.632 80.0864 145.817 79.0826ZM123.76 32.5757C124.592 32.5757 125.358 32.9948 125.804 33.6979L139.831 55.7398C140.575 56.9057 140.968 58.2552 140.968 59.6425V78.6363H131.708L130.737 83.4848H92.4818V35C92.4818 33.6624 93.5708 32.5757 94.9061 32.5757H123.76ZM31.3421 22.8788H102.179V27.7272H30.13L31.3421 22.8788ZM36.3364 32.5757H88.0794C87.8071 33.3369 87.6331 34.1465 87.6331 35V83.4848H27.4831L36.3364 32.5757ZM21.8922 88.3333H129.768L126.859 102.879H123.797C120.436 97.0916 114.187 93.1818 107.025 93.1818C99.8637 93.1818 93.6135 97.0916 90.254 102.879H65.6153C62.2558 97.0916 56.0056 93.1818 48.8439 93.1818C41.6822 93.1818 35.432 97.0916 32.0725 102.879H20.0716L21.8922 88.3333ZM14.9033 117.424V107.727H30.0873C29.6849 109.281 29.4493 110.898 29.4493 112.576C29.4493 114.253 29.6849 115.87 30.0873 117.424H14.9033ZM48.8439 127.121C40.8216 127.121 34.298 120.598 34.298 112.576C34.298 104.554 40.8216 98.0303 48.8439 98.0303C56.8662 98.0303 63.3899 104.554 63.3899 112.576C63.3899 120.598 56.8662 127.121 48.8439 127.121ZM67.6005 117.424C68.003 115.87 68.2385 114.253 68.2385 112.576C68.2385 110.898 68.003 109.281 67.6005 107.727H88.2735C87.8687 109.281 87.6331 110.898 87.6331 112.576C87.6331 114.253 87.8687 115.87 88.2712 117.424H67.6005ZM107.028 127.121C99.0054 127.121 92.4818 120.598 92.4818 112.576C92.4818 104.554 99.0054 98.0303 107.028 98.0303C115.05 98.0303 121.574 104.554 121.574 112.576C121.574 120.598 115.05 127.121 107.028 127.121ZM139.007 117.424H125.782C126.187 115.87 126.422 114.253 126.422 112.576C126.422 110.898 126.187 109.281 125.784 107.727H130.834L135.683 83.4848H143.393C144.658 83.4848 145.701 84.4566 145.807 85.696L139.007 117.424Z" fill="black"/>
<path d="M136.12 58.5465L122.917 37.4243H97.3306V68.9395H136.12V58.5465ZM131.271 64.091H102.179V42.2728H120.23L131.271 59.9385V64.091Z" fill="black"/>
<path d="M97.3306 73.7878H111.877V78.6363H97.3306V73.7878Z" fill="black"/>
<path d="M0.357422 37.4243H5.20607V42.2728H0.357422V37.4243Z" fill="black"/>
<path d="M0.357422 51.9697H5.20607V56.8182H0.357422V51.9697Z" fill="black"/>
<path d="M0.357422 66.5151H5.20607V71.3636H0.357422V66.5151Z" fill="black"/>
</g>
<defs>
<clipPath id="clip0_53_39">
<rect width="150.308" height="150" fill="white" transform="translate(0.357422)"/>
</clipPath>
</defs>
</svg>
