<svg width="151" height="150" viewBox="0 0 151 150" fill="none" xmlns="http://www.w3.org/2000/svg">
<path d="M20.3206 102.441V139.446C20.3206 140.858 21.4643 141.999 22.8787 141.999H31.8884C33.3028 141.999 34.4466 140.858 34.4466 139.446V102.441C34.4466 101.034 33.3028 99.8882 31.8884 99.8882H22.8787C21.4643 99.8876 20.3206 101.034 20.3206 102.441Z" fill="#5FCDFF"/>
<path d="M20.3206 102.441V139.446C20.3206 140.858 21.4643 141.999 22.8787 141.999H24.8862C26.3006 141.999 27.4443 140.858 27.4443 139.446V102.441C27.4443 101.034 26.3006 99.8882 24.8862 99.8882H22.8787C21.4643 99.8876 20.3206 101.034 20.3206 102.441Z" fill="#30B6FF"/>
<path d="M88.5864 111.299C88.4278 114.666 85.5215 117.256 82.1448 117.256H76.4478L80.8038 119.376C84.1217 120.991 87.9652 121.145 91.4023 119.801L121.84 105.114C126.342 103.584 131.017 106.925 131.017 111.671C131.017 114.552 129.231 117.132 126.53 118.15L110.596 126.269C105.524 128.853 100.204 130.939 94.6926 132.371C86.273 134.558 77.5939 135.67 68.8643 135.67H66.1329C59.1054 135.67 52.0943 135.186 45.0874 134.646C43.3941 134.515 41.6996 134.593 40.0438 134.869C38.111 135.191 36.2292 135.783 34.449 136.635V107.111C37.5291 105.927 40.7443 105.182 43.9994 104.883C44.7022 104.82 45.4074 104.784 46.1131 104.762V104.737H82.3221C85.8861 104.737 88.7561 107.705 88.5864 111.299Z" fill="#FFBB98"/>
<path d="M126.53 109.349L110.595 117.468C105.522 120.054 100.202 122.143 94.695 123.574C86.2718 125.756 77.5956 126.871 68.8672 126.871H66.1341C59.1042 126.871 52.0914 126.39 45.085 125.85C43.3923 125.715 41.6996 125.797 40.0421 126.073C38.1139 126.39 36.2274 126.982 34.4519 127.838V136.637C36.2268 135.78 38.1139 135.188 40.0421 134.872C41.6996 134.596 43.3923 134.514 45.085 134.649C52.092 135.189 59.1042 135.67 66.1341 135.67H68.8672C77.5962 135.67 86.2718 134.555 94.695 132.373C100.202 130.942 105.522 128.854 110.595 126.267L126.53 118.148C129.228 117.134 131.014 114.553 131.014 111.673C131.014 109.972 130.415 108.446 129.433 107.268C128.682 108.182 127.694 108.91 126.53 109.349Z" fill="#FFCAA6"/>
<path d="M136.372 26.4949C127.475 23.823 126.36 14.1182 126.307 9.93809C126.292 8.87168 125.401 8.00098 124.332 8.00098H62.7951C61.7265 8.00098 60.8352 8.87168 60.8199 9.93809C60.7671 14.1176 59.6527 23.8225 50.7551 26.4949C49.8938 26.7551 49.3125 27.5613 49.3501 28.4584C50.522 56.1059 68.5584 83.0959 89.4243 98.5225C91.8867 100.343 95.2405 100.343 97.703 98.5225C118.479 83.1627 136.589 56.4961 137.777 28.4584C137.815 27.5619 137.233 26.7551 136.372 26.4949Z" fill="#44C7B6"/>
<path d="M98.3224 98.062C98.1193 98.2138 97.9103 98.372 97.7006 98.5243C95.2393 100.341 91.8897 100.341 89.4214 98.5243C68.5555 83.0954 50.5197 56.106 49.3519 28.4585C49.3137 27.5597 49.8909 26.7558 50.754 26.4962C59.6545 23.8243 60.7647 14.1188 60.8223 9.94053C60.8352 8.87061 61.723 8.00342 62.7951 8.00342H72.3115C71.2393 8.00342 70.351 8.87061 70.3387 9.94053C70.2817 14.1188 69.1714 23.8249 60.2704 26.4962C59.4079 26.7558 58.8301 27.5597 58.8683 28.4585C60.0232 55.8341 77.7173 82.5634 98.3224 98.062Z" fill="#4BDBC3"/>
<path d="M137.777 28.4579C136.59 56.4985 118.478 83.1645 97.7012 98.5237C95.2399 100.341 91.8903 100.341 89.422 98.5237C89.2188 98.3719 89.0098 98.2196 88.8066 98.0614C109.323 82.6325 127.087 56.219 128.261 28.4573C128.299 27.5584 127.715 26.7545 126.859 26.495C117.958 23.8231 116.841 14.1176 116.79 9.93931C116.777 8.86938 115.883 8.0022 114.818 8.0022H124.334C125.4 8.0022 126.294 8.86938 126.307 9.93931C126.357 14.1176 127.474 23.8237 136.375 26.495C137.231 26.7551 137.815 27.559 137.777 28.4579Z" fill="#3BB2A0"/>
<path d="M105.959 41.3221H98.1199V33.4993C98.1199 30.9879 96.0802 28.9524 93.5637 28.9524C91.0472 28.9524 89.0075 30.9879 89.0075 33.4993V41.3221H81.1685C78.652 41.3221 76.6123 43.3577 76.6123 45.869C76.6123 48.3803 78.652 50.4159 81.1685 50.4159H89.0075V58.2387C89.0075 60.75 91.0472 62.7856 93.5637 62.7856C96.0802 62.7856 98.1199 60.75 98.1199 58.2387V50.4159H105.959C108.475 50.4159 110.515 48.3803 110.515 45.869C110.515 43.3577 108.475 41.3221 105.959 41.3221Z" fill="#FFEFEE"/>
<path d="M55.9535 55.6072C60.9419 51.5835 64.0161 45.2906 63.5887 38.2992C62.9616 28.0435 54.6219 19.6962 44.3463 19.0441C32.3416 18.2824 22.3667 27.7734 22.3667 39.5894C22.3667 46.0617 25.3617 51.8331 30.0412 55.6072C21.2534 59.8734 14.8924 68.3431 13.5877 78.3966C13.3235 80.431 14.9211 82.2339 16.9773 82.2339H69.0174C71.073 82.2339 72.6706 80.431 72.407 78.3966C71.1023 68.3431 64.7418 59.8734 55.9535 55.6072Z" fill="#FFE2E2"/>
<path d="M40.2757 55.606C30.3942 60.4071 23.5769 70.5275 23.5769 82.2345H16.9768C14.9212 82.2345 13.323 80.4316 13.5872 78.3972C14.8924 68.3448 21.2553 59.8739 30.0389 55.6066C24.8498 51.4183 21.7291 44.7632 22.4789 37.429C23.4412 28.0124 30.9214 20.3694 40.3298 19.1712C43.0476 18.8249 45.6663 19.0194 48.1164 19.6411C39.1972 21.9087 32.6047 29.9794 32.6047 39.5888C32.6053 46.0581 35.6009 51.8331 40.2757 55.606Z" fill="#FFEFEE"/>
<path d="M69.0192 82.2345H60.8433C62.8983 82.2345 64.4953 80.4286 64.2334 78.3942C62.9253 68.3419 56.5642 59.8728 47.7776 55.6083C52.7648 51.5829 55.8391 45.2894 55.414 38.2997C54.8415 28.971 47.8921 21.2249 38.9094 19.4079C40.6538 19.0546 42.474 18.9239 44.3493 19.0435C54.6237 19.6962 62.9634 28.0458 63.5905 38.2997C64.0156 45.2894 60.9413 51.5829 55.9541 55.6083C64.7407 59.8728 71.1018 68.3425 72.41 78.3942C72.6712 80.4286 71.0742 82.2345 69.0192 82.2345Z" fill="#FFCFCF"/>
<path d="M120.816 103.002C88.0837 118.798 89.9033 118.294 86.7779 118.347C94.2381 113.825 90.9901 102.394 82.3221 102.394C44.4157 102.394 43.5256 101.938 36.794 103.862V102.44C36.794 99.7388 34.5922 97.5474 31.8913 97.5474H22.8787C20.172 97.5474 17.9702 99.7388 17.9702 102.44V139.448C17.9702 142.149 20.172 144.34 22.8787 144.34H31.8913C34.5922 144.34 36.794 142.149 36.794 139.448V138.182C39.3979 137.177 42.1464 136.769 44.9312 136.987C91.5743 140.644 100.987 133.796 127.49 120.291C131.01 118.904 133.365 115.459 133.365 111.673C133.365 104.606 125.768 100.615 120.816 103.002ZM32.0968 139.447C32.0968 139.564 32.0088 139.652 31.8913 139.652H22.8787C22.7613 139.652 22.6673 139.564 22.6673 139.447V102.439C22.6673 102.328 22.7613 102.234 22.8787 102.234H31.8913C32.0029 102.234 32.0968 102.328 32.0968 102.439V139.447ZM125.701 115.955C125.509 116.027 109.707 124.089 109.523 124.182C78.6349 139.922 48.3624 129.758 36.7951 133.224V108.76C43.5743 106.522 44.7133 107.082 82.3215 107.082C84.4851 107.082 86.2448 108.838 86.2448 110.997C86.2448 113.156 84.4845 114.912 82.3215 114.912H60.1769C58.8799 114.912 57.8283 115.962 57.8283 117.256C57.8283 118.55 58.8799 119.6 60.1769 119.6H75.9041C79.852 121.521 85.0646 124.8 92.2595 121.982C92.3153 121.96 92.3699 121.936 92.4233 121.911L122.72 107.291C125.69 106.37 128.668 108.603 128.668 111.673C128.668 113.566 127.476 115.287 125.701 115.955Z" fill="#5F266D"/>
<path d="M119.152 54.2519C119.458 54.3866 119.775 54.4511 120.092 54.4511C120.996 54.4511 121.859 53.9296 122.246 53.0507C124.595 47.7069 126.063 43.1483 126.122 42.955C126.515 41.7245 125.834 40.4062 124.601 40.0136C123.362 39.621 122.041 40.3007 121.648 41.5312C121.636 41.578 120.197 46.0429 117.943 51.164C117.42 52.3534 117.96 53.7362 119.152 54.2519Z" fill="#5F266D"/>
<path d="M112.876 64.6817C113.897 65.4282 115.377 65.2242 116.158 64.1602C116.809 63.2637 117.473 62.25 118.131 61.1543C118.794 60.0469 118.43 58.6055 117.32 57.9434C116.205 57.2754 114.76 57.6387 114.097 58.752C113.51 59.7305 112.923 60.6211 112.353 61.4121C111.59 62.4551 111.825 63.9258 112.876 64.6817Z" fill="#5F266D"/>
<path d="M81.1702 52.7578H86.6599V58.2363C86.6599 62.0391 89.7542 65.127 93.5647 65.127C97.3694 65.127 100.47 62.0391 100.47 58.2363V52.7578H105.959C109.764 52.7578 112.864 49.6699 112.864 45.8672C112.864 42.0703 109.764 38.9766 105.959 38.9766H100.47V33.498C100.47 29.7012 97.3694 26.6074 93.5647 26.6074C89.7542 26.6074 86.6599 29.7012 86.6599 33.498V38.9766H81.1702C77.3596 38.9766 74.2654 42.0703 74.2654 45.8672C74.2654 49.6699 77.3596 52.7578 81.1702 52.7578ZM81.1702 43.6641H89.0085C90.3061 43.6641 91.3571 42.6152 91.3571 41.3203V33.498C91.3571 32.2852 92.3435 31.2949 93.5647 31.2949C94.7801 31.2949 95.7724 32.2852 95.7724 33.498V41.3203C95.7724 42.6152 96.8234 43.6641 98.1209 43.6641H105.959C107.175 43.6641 108.167 44.6543 108.167 45.8672C108.167 47.0859 107.175 48.0703 105.959 48.0703H98.1209C96.8234 48.0703 95.7724 49.1191 95.7724 50.4141V58.2363C95.7724 59.4551 94.7801 60.4395 93.5647 60.4395C92.3435 60.4395 91.3571 59.4551 91.3571 58.2363V50.4141C91.3571 49.1191 90.3061 48.0703 89.0085 48.0703H81.1702C79.9489 48.0703 78.9625 47.0859 78.9625 45.8672C78.9625 44.6543 79.9489 43.6641 81.1702 43.6641Z" fill="#5F266D"/>
<path d="M70.76 84.3047C75.874 90.2637 81.675 95.7129 88.0279 100.406C91.3728 102.881 95.8345 102.823 99.1014 100.406C122.916 82.7988 139.021 54.5977 140.125 28.5586C140.207 26.5957 138.945 24.8203 137.054 24.252C137.048 24.252 137.048 24.252 137.048 24.252C129.609 22.0195 128.699 13.4766 128.658 9.9082C128.623 7.56445 126.679 5.66016 124.331 5.66016H62.7925C60.444 5.66016 58.5064 7.56445 58.4712 9.9082C58.4418 12.293 58.025 16.9043 55.5237 20.3613C40.2381 10.4057 20.0193 21.4746 20.0193 39.5918C20.0193 45.4102 22.1976 50.9062 26.0845 55.1133C17.9878 60.1582 12.4863 68.6367 11.2591 78.0938C10.8158 81.5221 13.5026 84.5801 16.9779 84.5801C73.2114 84.5801 69.5447 84.7002 70.76 84.3047ZM63.1624 10.3477H123.967C124.09 15.0996 125.523 25.5 135.416 28.6523C134.259 53.25 118.935 79.9101 96.3066 96.6387C94.6626 97.8516 92.4608 97.8516 90.8227 96.6387C84.7281 92.1328 79.162 86.9121 74.2653 81.1992C74.7056 80.2383 74.8759 79.1602 74.735 78.0938C73.4961 68.5254 68.0357 60.1465 59.9038 55.1074C68.1561 46.1338 68.0574 32.1264 59.2169 23.3438C62.4403 19.0078 63.0802 13.4648 63.1624 10.3477ZM16.9779 79.8926C16.3285 79.8926 15.8353 79.316 15.9152 78.6973C17.0983 69.5795 22.9521 61.6084 31.0693 57.7148C32.6258 56.9572 32.843 54.8479 31.5155 53.7832C22.9274 46.8545 22.3408 33.9223 30.488 26.2793C41.8698 15.6404 60.3154 23.2547 61.2425 38.4434C61.5419 43.3301 59.8568 48.1113 56.6452 51.7148C55.9876 52.459 55.2654 53.1504 54.4786 53.7832C53.1517 54.8473 53.3677 56.9566 54.9248 57.7148C57.2264 58.834 59.3284 60.2461 61.1838 61.8926C65.1 65.3672 67.9359 69.9024 69.3333 74.9883C70.8587 80.4902 69.9193 79.8926 67.1726 79.8926H16.9779Z" fill="#5F266D"/>
</svg>
