<svg width="151" height="150" viewBox="0 0 151 150" fill="none" xmlns="http://www.w3.org/2000/svg">
<g clip-path="url(#clip0_53_28)">
<path d="M42.9319 43.7526H80.5058V101.248H42.9319V43.7526Z" fill="#65CECC"/>
<path d="M38.2927 95.6508L60.4663 145.592V121.826L72.991 132.605L52.7687 91.0562" fill="#DE2F55"/>
<path d="M24.1299 90.9636L2.85303 131.86L15.3777 121.689L15.4929 146.244L37.922 95.6332" fill="#DE2F55"/>
<path d="M145.634 64.1081C145.656 61.7871 144.79 59.5454 143.212 57.8399C146.309 56.3866 148.245 53.2369 148.139 49.8234C148.415 45.3925 145.061 41.5678 140.624 41.2529H98.0404V13.7551C98.3626 8.58589 94.4499 4.12345 89.2731 3.75598C84.0964 4.12345 80.1837 8.58589 80.5059 13.7551V101.248H130.604C135.042 100.933 138.395 97.1079 138.119 92.677C138.132 90.5825 137.429 88.5464 136.126 86.9044C140.319 86.3078 143.359 82.6125 143.129 78.3926C143.151 76.0715 142.285 73.8298 140.707 72.1243C143.804 70.671 145.74 67.5213 145.634 64.1081Z" fill="#F0B77D"/>
<path d="M64.2507 75.9402L58.9061 79.0853C57.8055 79.7599 57.3753 81.1432 57.8991 82.3215L60.452 88.1457C61.0375 89.3928 60.4989 90.8777 59.249 91.462C58.8548 91.6464 58.4189 91.7248 57.9849 91.6892L51.8911 90.9502C50.6204 90.8193 49.466 91.6951 49.2531 92.9522L48.0463 99.2267C47.8468 100.521 46.6335 101.41 45.336 101.211C44.8544 101.137 44.4073 100.917 44.055 100.581L39.5436 96.2432C38.6378 95.357 37.1881 95.357 36.2819 96.2432L31.7705 100.581C30.8215 101.486 29.317 101.452 28.4102 100.505C28.0736 100.153 27.8535 99.7073 27.7792 99.2267L26.5725 92.9519C26.3596 91.6948 25.2051 90.8186 23.9345 90.9499L17.8406 91.6886C16.4651 91.8011 15.2587 90.7793 15.1463 89.4066C15.1109 88.9735 15.1892 88.5385 15.3739 88.1451L17.9267 82.3215C18.4509 81.1432 18.0204 79.7599 16.9198 79.0853L11.5752 75.9402C10.3631 75.195 9.98611 73.6104 10.7329 72.4008C10.9439 72.0586 11.2326 71.7709 11.5752 71.5603L16.9198 68.4152C18.0204 67.7406 18.4506 66.3572 17.9267 65.1789L15.3739 59.3547C14.7884 58.1076 15.3269 56.6227 16.5769 56.0384C16.9711 55.8541 17.407 55.7756 17.8409 55.8113L23.9348 56.5503C25.2054 56.6812 26.3599 55.8053 26.5728 54.5482L27.8929 48.2738C28.0451 47.021 29.1864 46.1289 30.4417 46.2808C30.9433 46.3414 31.4104 46.5661 31.7705 46.9195L36.2819 51.2573C37.1878 52.1434 38.6375 52.1434 39.5436 51.2573L44.055 46.9195C45.0041 46.0146 46.5086 46.0486 47.4154 46.9954C47.752 47.347 47.9721 47.7932 48.0463 48.2738L49.2531 54.5485C49.466 55.8056 50.6204 56.6818 51.8911 56.5506L57.9849 55.8116C59.3604 55.6991 60.5669 56.7209 60.6793 58.0936C60.7147 58.5266 60.6364 58.9616 60.4516 59.355L57.8988 65.1786C57.3747 66.3569 57.8052 67.7403 58.9058 68.4149L64.2504 71.5599C65.4624 72.3052 65.8397 73.8897 65.093 75.0993C64.8819 75.4415 64.5932 75.7293 64.2507 75.9402Z" fill="#DE2F55"/>
<path d="M37.9221 83.7493C43.4558 83.7493 47.9418 79.2725 47.9418 73.7501C47.9418 68.2278 43.4558 63.751 37.9221 63.751C32.3883 63.751 27.9023 68.2278 27.9023 73.7501C27.9023 79.2725 32.3883 83.7493 37.9221 83.7493Z" fill="#E9CD4B"/>
<path d="M37.9219 86.249C31.0048 86.249 25.3972 80.6529 25.3972 73.7501C25.3972 66.8472 31.0048 61.2511 37.9219 61.2511C44.8389 61.2511 50.4465 66.8472 50.4465 73.7501C50.4384 80.6498 44.8355 86.2409 37.9219 86.249ZM37.9219 66.2507C33.7715 66.2507 30.4071 69.6082 30.4071 73.7501C30.4071 77.8919 33.7715 81.2494 37.9219 81.2494C42.0722 81.2494 45.4366 77.8919 45.4366 73.7501C45.4319 69.6101 42.0703 66.2554 37.9219 66.2507Z" fill="black"/>
<path d="M146.776 58.5488C149.281 56.3443 150.694 53.1565 150.644 49.8239C150.919 44.0132 146.445 39.0695 140.624 38.753H100.545V13.7551C100.865 7.20654 95.8325 1.62639 89.273 1.2561C82.7135 1.62639 77.6811 7.20654 78.0008 13.7551V43.7526H45.4367V43.8001C44.271 43.8507 43.1626 44.3191 42.3153 45.1196L38.0221 49.4577L33.5089 45.1171C32.2639 43.8857 30.4372 43.4448 28.7658 43.9722C27.0468 44.5337 25.7721 45.9864 25.4415 47.761L24.2353 54.0667L18.1443 53.3318C16.4071 53.114 14.6887 53.8555 13.658 55.2675C12.5652 56.7374 12.3451 58.6785 13.0806 60.3549L15.6491 66.2626L10.3042 69.407C7.9007 70.8522 7.12636 73.9685 8.57484 76.367C9.00193 77.0742 9.5956 77.6666 10.3042 78.0928L15.6322 81.3201L13.0809 87.1399C12.3448 88.8157 12.5633 90.7561 13.6533 92.2273C14.6844 93.6409 16.4031 94.3849 18.1421 94.1705L19.744 93.9703L0.629205 130.708C-0.00767264 131.934 0.471395 133.443 1.69944 134.078C2.58524 134.537 3.65892 134.427 4.43294 133.799L12.8971 126.927L12.9876 146.256C12.9926 147.435 13.8239 148.451 14.9812 148.69C15.1493 148.726 15.3206 148.744 15.4925 148.744C16.4841 148.743 17.3822 148.159 17.7845 147.255L38.1048 101.398L58.1765 146.606C58.7367 147.868 60.2161 148.438 61.4808 147.879C62.3873 147.478 62.9715 146.581 62.9712 145.592V127.281L71.3543 134.497C72.401 135.399 73.9823 135.284 74.8862 134.239C75.5403 133.484 75.6809 132.412 75.2435 131.514L61.7291 103.748H130.604C136.424 103.431 140.899 98.4874 140.624 92.6766C140.625 91.212 140.356 89.76 139.831 88.3923C143.473 86.3899 145.706 82.5418 145.634 78.3931C145.642 76.4561 145.174 74.5469 144.271 72.832C146.776 70.6281 148.19 67.44 148.138 64.1071C148.147 62.171 147.679 60.2624 146.776 58.5488ZM17.9436 134.536L17.8825 121.676C17.8769 120.296 16.7516 119.182 15.3688 119.188C14.7961 119.19 14.2413 119.388 13.7973 119.75L10.6442 122.308L24.534 95.6145L25.319 99.6976C25.6534 101.492 26.9454 102.959 28.685 103.52C29.6814 103.825 30.7503 103.795 31.7276 103.433L17.9436 134.536ZM37.9119 93.0794C36.6538 93.0791 35.4452 93.5687 34.5434 94.444L30.2406 98.7552L29.0345 92.4813C28.5548 89.9446 26.2058 88.1995 23.6332 88.4679L17.6693 89.1466L20.2209 83.3218C21.2592 80.986 20.389 78.2444 18.1928 76.9307L12.8479 73.7132L18.1953 70.5691C20.39 69.2542 21.2585 66.5132 20.2209 64.178L17.54 58.2948L23.631 59.0297C26.1939 59.3225 28.5479 57.5902 29.0251 55.0604L30.3095 48.9843L34.5437 53.0562C36.4206 54.8748 39.4061 54.8748 41.2829 53.0562L45.5786 48.7525H45.5873L46.7919 55.0191C47.2729 57.5548 49.6209 59.2994 52.1932 59.0325L58.1571 58.3538L55.6058 64.1787C54.5678 66.5144 55.4377 69.2561 57.6339 70.5697L62.9543 73.8019L57.6314 76.9317C55.4374 78.2472 54.5681 80.987 55.6033 83.3227L58.2867 89.206L52.1957 88.471C49.6209 88.1929 47.266 89.9409 46.7919 92.4819L45.7937 98.7827L41.2804 94.4421C40.3774 93.5684 39.1694 93.08 37.9119 93.0794ZM65.432 122.799L62.1027 119.933C61.0553 119.031 59.4734 119.147 58.5698 120.192C58.1774 120.646 57.9614 121.225 57.9614 121.825V133.779L44.5594 103.595C45.4095 103.818 46.306 103.792 47.1417 103.52C48.8813 102.959 50.1736 101.492 50.5077 99.6976L51.4733 94.1159L65.432 122.799ZM78.0008 98.748H59.2962L57.0289 94.0893L57.6827 94.1681C59.4189 94.3812 61.1351 93.6406 62.169 92.2323C63.2606 90.7621 63.4807 88.8213 62.7464 87.1449L60.1779 81.2372L65.5228 78.0928C67.9263 76.6476 68.7006 73.5313 67.2522 71.1328C66.8251 70.4257 66.2314 69.8332 65.5228 69.407L60.1948 66.1798L62.7461 60.3574C63.4813 58.6813 63.2621 56.7405 62.1712 55.27C61.1408 53.857 59.4227 53.1137 57.6849 53.3293L51.7138 54.0764L50.6905 48.7521H78.0011V98.748H78.0008ZM142.238 55.5388C140.964 56.0753 140.366 57.5411 140.904 58.8132C141.02 59.0882 141.184 59.34 141.39 59.5572C142.524 60.8005 143.146 62.426 143.129 64.1074C143.226 66.5128 141.897 68.7502 139.736 69.8198C138.46 70.3557 137.861 71.8221 138.398 73.0951C138.515 73.3704 138.679 73.6229 138.885 73.8404C140.028 75.0793 140.65 76.7092 140.624 78.3931C140.837 81.3035 138.809 83.9027 135.93 84.4107C134.551 84.5185 133.521 85.7216 133.629 87.0977C133.668 87.5986 133.858 88.0764 134.173 88.4679C135.118 89.6672 135.626 91.1514 135.614 92.6766C135.877 95.7232 133.651 98.4208 130.604 98.748H83.0104V13.7551C82.701 9.96975 85.4862 6.63472 89.2727 6.25569C93.0592 6.63472 95.8444 9.96975 95.535 13.7551V41.2528C95.5341 42.6327 96.6544 43.7516 98.0371 43.7526C98.038 43.7526 98.039 43.7526 98.0399 43.7526H140.624C143.67 44.0797 145.896 46.777 145.634 49.8239C145.73 52.23 144.4 54.4682 142.238 55.5388Z" fill="black"/>
</g>
<defs>
<clipPath id="clip0_53_28">
<rect width="150.308" height="150" fill="white" transform="translate(0.347412)"/>
</clipPath>
</defs>
</svg>
