<svg width="152" height="150" viewBox="0 0 152 150" fill="none" xmlns="http://www.w3.org/2000/svg">
<g clip-path="url(#clip0_53_94)">
<path d="M37.5565 72.3503L136.792 48.5369L125.449 1.45998L26.2131 25.2734L37.5565 72.3503Z" fill="#89B06C"/>
<path d="M45.8624 74.2641L145.097 50.4509L133.754 3.37404L34.519 27.1872L45.8624 74.2641Z" fill="#789761"/>
<path d="M37.5117 80.8993L140.698 56.1379L128.902 7.18501L25.7163 31.9463L37.5117 80.8993Z" fill="#91B874"/>
<path d="M130.061 46.115L123.993 20.9297C120.863 21.6812 117.714 19.7563 116.962 16.6333L40.6562 34.9444C41.408 38.0675 39.4804 41.2099 36.351 41.9602L42.4191 67.1455C45.5485 66.394 48.6974 68.3188 49.4504 71.4419L125.757 53.1319C125.003 50.0086 126.932 46.8665 130.061 46.115Z" fill="#B2D797"/>
<path d="M100.426 39.9071C97.7182 28.668 87.8134 21.4069 78.3034 23.6889C68.7934 25.971 63.2794 36.9321 65.9875 48.1713C68.6956 59.4104 78.6004 66.6715 88.1104 64.3894C97.6204 62.1073 103.134 51.1462 100.426 39.9071Z" fill="#91B874"/>
<path d="M84.9431 60.2016L84.0641 56.5512C81.4569 57.0545 78.7887 56.9646 77.1218 56.4709L77.1925 51.6987C79.0226 52.195 81.4881 52.4572 83.9907 51.8569C86.1849 51.3308 87.4831 50.1252 87.112 48.5877C86.7615 47.1281 85.3071 46.5023 82.2267 46.2243C77.7738 45.83 74.5014 44.5837 73.6042 40.8565C72.7901 37.4769 74.5372 34.253 78.4619 32.4577L77.583 28.8085L81.3562 27.9023L82.1703 31.282C84.7763 30.7787 86.6376 30.9021 88.0561 31.2103L87.9854 35.8219C86.883 35.6396 84.9002 35.1806 82.1274 35.8459C79.6259 36.4462 79.0761 37.718 79.3353 38.7929C79.6403 40.0608 81.1824 40.5439 84.7514 40.9872C89.7207 41.5025 92.0769 43.1707 92.9091 46.6283C93.7329 50.0487 92.012 53.5482 87.7705 55.3805L88.7143 59.298L84.9431 60.2016Z" fill="#B2D797"/>
<path d="M50.6826 58.2682C54.2375 58.2682 57.1194 55.3922 57.1194 51.8445C57.1194 48.2969 54.2375 45.4209 50.6826 45.4209C47.1276 45.4209 44.2457 48.2969 44.2457 51.8445C44.2457 55.3922 47.1276 58.2682 50.6826 58.2682Z" fill="#91B874"/>
<path d="M115.726 42.6524C119.281 42.6524 122.163 39.7765 122.163 36.2288C122.163 32.6811 119.281 29.8052 115.726 29.8052C112.171 29.8052 109.289 32.6811 109.289 36.2288C109.289 39.7765 112.171 42.6524 115.726 42.6524Z" fill="#91B874"/>
<path d="M151.119 140.383C151.119 144.887 147.46 148.539 142.947 148.539H17.3367C12.8236 148.539 9.16455 144.887 9.16455 140.383V40.9642C9.16455 36.4592 12.8236 32.8076 17.3367 32.8076H142.947C147.46 32.8076 151.119 36.4592 151.119 40.9642V140.383Z" fill="#654A34"/>
<g opacity="0.2">
<path d="M134.07 127.735C134.07 131.093 131.341 133.815 127.976 133.815H32.3073C28.9424 133.815 26.214 131.093 26.214 127.735V53.61C26.214 50.252 28.9424 47.5303 32.3073 47.5303H127.976C131.341 47.5303 134.07 50.252 134.07 53.61V127.735Z" fill="#936B49"/>
</g>
<path d="M129.078 141.641H127.886C127.224 141.641 126.685 141.105 126.685 140.442C126.685 139.78 127.224 139.244 127.886 139.244H129.078C129.741 139.244 130.279 139.78 130.279 140.442C130.279 141.105 129.741 141.641 129.078 141.641ZM120.736 141.641H119.544C118.881 141.641 118.343 141.105 118.343 140.442C118.343 139.78 118.881 139.244 119.544 139.244H120.736C121.399 139.244 121.937 139.78 121.937 140.442C121.937 141.105 121.399 141.641 120.736 141.641ZM112.395 141.641H111.203C110.54 141.641 110.002 141.105 110.002 140.442C110.002 139.78 110.54 139.244 111.203 139.244H112.395C113.058 139.244 113.596 139.78 113.596 140.442C113.596 141.105 113.058 141.641 112.395 141.641ZM104.053 141.641H102.861C102.198 141.641 101.66 141.105 101.66 140.442C101.66 139.78 102.198 139.244 102.861 139.244H104.053C104.716 139.244 105.254 139.78 105.254 140.442C105.254 141.105 104.716 141.641 104.053 141.641ZM95.7105 141.641H94.5192C93.8563 141.641 93.3182 141.105 93.3182 140.442C93.3182 139.78 93.8563 139.244 94.5192 139.244H95.7105C96.3734 139.244 96.9115 139.78 96.9115 140.442C96.9115 141.105 96.3745 141.641 95.7105 141.641ZM87.3701 141.641H86.1788C85.5159 141.641 84.9778 141.105 84.9778 140.442C84.9778 139.78 85.5159 139.244 86.1788 139.244H87.3701C88.033 139.244 88.5711 139.78 88.5711 140.442C88.5711 141.105 88.033 141.641 87.3701 141.641ZM79.0274 141.641H77.8361C77.1732 141.641 76.6351 141.105 76.6351 140.442C76.6351 139.78 77.1732 139.244 77.8361 139.244H79.0274C79.6903 139.244 80.2284 139.78 80.2284 140.442C80.2284 141.105 79.6915 141.641 79.0274 141.641ZM70.6871 141.641H69.4958C68.8329 141.641 68.2948 141.105 68.2948 140.442C68.2948 139.78 68.8329 139.244 69.4958 139.244H70.6871C71.35 139.244 71.8881 139.78 71.8881 140.442C71.8881 141.105 71.35 141.641 70.6871 141.641ZM62.3444 141.641H61.1531C60.4902 141.641 59.9521 141.105 59.9521 140.442C59.9521 139.78 60.4902 139.244 61.1531 139.244H62.3444C63.0073 139.244 63.5454 139.78 63.5454 140.442C63.5454 141.105 63.0084 141.641 62.3444 141.641ZM54.0029 141.641H52.8116C52.1487 141.641 51.6106 141.105 51.6106 140.442C51.6106 139.78 52.1487 139.244 52.8116 139.244H54.0029C54.6657 139.244 55.2039 139.78 55.2039 140.442C55.2039 141.105 54.6669 141.641 54.0029 141.641ZM45.6613 141.641H44.47C43.8072 141.641 43.269 141.105 43.269 140.442C43.269 139.78 43.8072 139.244 44.47 139.244H45.6613C46.3242 139.244 46.8623 139.78 46.8623 140.442C46.8623 141.105 46.3242 141.641 45.6613 141.641ZM37.3198 141.641H36.1285C35.4656 141.641 34.9275 141.105 34.9275 140.442C34.9275 139.78 35.4656 139.244 36.1285 139.244H37.3198C37.9827 139.244 38.5208 139.78 38.5208 140.442C38.5208 141.105 37.9839 141.641 37.3198 141.641ZM28.9783 141.641H27.787C27.1241 141.641 26.586 141.105 26.586 140.442C26.586 139.78 27.1241 139.244 27.787 139.244H28.9783C29.6412 139.244 30.1793 139.78 30.1793 140.442C30.1793 141.105 29.6412 141.641 28.9783 141.641ZM136.214 141.48C135.66 141.48 135.163 141.097 135.04 140.533C134.901 139.887 135.313 139.25 135.961 139.11C136.278 139.041 136.594 138.944 136.901 138.821C137.515 138.571 138.215 138.868 138.464 139.481C138.714 140.096 138.416 140.794 137.802 141.043C137.369 141.217 136.92 141.357 136.467 141.454C136.383 141.472 136.298 141.48 136.214 141.48ZM21.0331 139.986C20.758 139.986 20.483 139.892 20.2572 139.702C19.9017 139.402 19.5714 139.071 19.2749 138.719C18.8487 138.214 18.9135 137.457 19.4202 137.032C19.9269 136.605 20.6849 136.669 21.1124 137.177C21.3226 137.425 21.558 137.66 21.8102 137.874C22.3157 138.301 22.3794 139.057 21.9508 139.563C21.713 139.842 21.3742 139.986 21.0331 139.986ZM141.645 135.81C141.579 135.81 141.512 135.805 141.445 135.794C140.791 135.684 140.349 135.065 140.461 134.413C140.515 134.088 140.543 133.758 140.543 133.428C140.543 132.765 141.081 132.189 141.744 132.189C142.407 132.189 142.945 132.682 142.945 133.345V133.428C142.945 133.892 142.906 134.356 142.828 134.811C142.73 135.397 142.222 135.81 141.645 135.81ZM18.5401 132.403C17.8772 132.403 17.3391 131.867 17.3391 131.205V130.016C17.3391 129.353 17.8772 128.817 18.5401 128.817C19.203 128.817 19.7411 129.353 19.7411 130.016V131.205C19.7411 131.866 19.203 132.403 18.5401 132.403ZM141.744 127.408C141.081 127.408 140.543 126.872 140.543 126.21V125.021C140.543 124.358 141.081 123.822 141.744 123.822C142.407 123.822 142.945 124.358 142.945 125.021V126.21C142.945 126.871 142.407 127.408 141.744 127.408ZM18.5401 124.078C17.8772 124.078 17.3391 123.542 17.3391 122.879V121.69C17.3391 121.028 17.8772 120.492 18.5401 120.492C19.203 120.492 19.7411 121.028 19.7411 121.69V122.879C19.7411 123.542 19.203 124.078 18.5401 124.078ZM141.744 119.083C141.081 119.083 140.543 118.547 140.543 117.884V116.695C140.543 116.032 141.081 115.497 141.744 115.497C142.407 115.497 142.945 116.032 142.945 116.695V117.884C142.945 118.547 142.407 119.083 141.744 119.083ZM18.5401 115.754C17.8772 115.754 17.3391 115.219 17.3391 114.556V113.367C17.3391 112.704 17.8772 112.168 18.5401 112.168C19.203 112.168 19.7411 112.704 19.7411 113.367V114.556C19.7411 115.219 19.203 115.754 18.5401 115.754ZM141.744 110.759C141.081 110.759 140.543 110.223 140.543 109.561V108.372C140.543 107.709 141.081 107.173 141.744 107.173C142.407 107.173 142.945 107.709 142.945 108.372V109.561C142.945 110.223 142.407 110.759 141.744 110.759ZM18.5401 107.43C17.8772 107.43 17.3391 106.894 17.3391 106.231V105.043C17.3391 104.38 17.8772 103.844 18.5401 103.844C19.203 103.844 19.7411 104.38 19.7411 105.043V106.231C19.7411 106.893 19.203 107.43 18.5401 107.43ZM141.744 102.435C141.081 102.435 140.543 101.899 140.543 101.236V100.046C140.543 99.3836 141.081 98.8478 141.744 98.8478C142.407 98.8478 142.945 99.3836 142.945 100.046V101.235C142.945 101.898 142.407 102.435 141.744 102.435ZM18.5401 99.1044C17.8772 99.1044 17.3391 98.5686 17.3391 97.9059V96.717C17.3391 96.0543 17.8772 95.5185 18.5401 95.5185C19.203 95.5185 19.7411 96.0543 19.7411 96.717V97.9059C19.7411 98.5686 19.203 99.1044 18.5401 99.1044ZM141.744 94.1093C141.081 94.1093 140.543 93.5734 140.543 92.9107V91.7219C140.543 91.0592 141.081 90.5233 141.744 90.5233C142.407 90.5233 142.945 91.0592 142.945 91.7219V92.9107C142.945 93.5734 142.407 94.1093 141.744 94.1093ZM18.5401 90.78C17.8772 90.78 17.3391 90.2441 17.3391 89.5814V88.3926C17.3391 87.7299 17.8772 87.194 18.5401 87.194C19.203 87.194 19.7411 87.7299 19.7411 88.3926V89.5814C19.7411 90.2441 19.203 90.78 18.5401 90.78ZM141.744 85.7849C141.081 85.7849 140.543 85.249 140.543 84.5863V83.3975C140.543 82.7348 141.081 82.1989 141.744 82.1989C142.407 82.1989 142.945 82.7348 142.945 83.3975V84.5863C142.945 85.249 142.407 85.7849 141.744 85.7849ZM18.5401 82.4567C17.8772 82.4567 17.3391 81.9209 17.3391 81.2582V80.0693C17.3391 79.4066 17.8772 78.8708 18.5401 78.8708C19.203 78.8708 19.7411 79.4066 19.7411 80.0693V81.2582C19.7411 81.9197 19.203 82.4567 18.5401 82.4567ZM141.744 77.4616C141.081 77.4616 140.543 76.9258 140.543 76.2631V75.0742C140.543 74.4115 141.081 73.8757 141.744 73.8757C142.407 73.8757 142.945 74.4115 142.945 75.0742V76.2631C142.945 76.9258 142.407 77.4616 141.744 77.4616ZM18.5401 74.1312C17.8772 74.1312 17.3391 73.5953 17.3391 72.9326V71.7437C17.3391 71.0811 17.8772 70.5452 18.5401 70.5452C19.203 70.5452 19.7411 71.0811 19.7411 71.7437V72.9326C19.7411 73.5953 19.203 74.1312 18.5401 74.1312ZM141.744 69.136C141.081 69.136 140.543 68.6002 140.543 67.9375V66.7486C140.543 66.0859 141.081 65.5501 141.744 65.5501C142.407 65.5501 142.945 66.0859 142.945 66.7486V67.9375C142.945 68.6002 142.407 69.136 141.744 69.136ZM18.5401 65.8067C17.8772 65.8067 17.3391 65.2709 17.3391 64.6082V63.4193C17.3391 62.7566 17.8772 62.2208 18.5401 62.2208C19.203 62.2208 19.7411 62.7566 19.7411 63.4193V64.6082C19.7411 65.2709 19.203 65.8067 18.5401 65.8067ZM141.744 60.8116C141.081 60.8116 140.543 60.2758 140.543 59.6131V58.4242C140.543 57.7615 141.081 57.2257 141.744 57.2257C142.407 57.2257 142.945 57.7615 142.945 58.4242V59.6131C142.945 60.2758 142.407 60.8116 141.744 60.8116ZM18.5401 57.4823C17.8772 57.4823 17.3391 56.9465 17.3391 56.2838V55.0949C17.3391 54.4322 17.8772 53.8964 18.5401 53.8964C19.203 53.8964 19.7411 54.4322 19.7411 55.0949V56.2838C19.7411 56.9465 19.203 57.4823 18.5401 57.4823ZM141.744 52.4884C141.081 52.4884 140.543 51.9525 140.543 51.2898V50.0998C140.543 49.4371 141.081 48.9013 141.744 48.9013C142.407 48.9013 142.945 49.4371 142.945 50.0998V51.2898C142.945 51.9525 142.407 52.4884 141.744 52.4884ZM18.5401 49.1386C17.8772 49.1386 17.3391 48.6221 17.3391 47.9605V47.9198C17.3391 47.4716 17.3752 47.0222 17.4471 46.5836C17.554 45.9306 18.1664 45.487 18.8258 45.5937C19.4801 45.7015 19.9246 46.3176 19.8166 46.9694C19.7661 47.2812 19.7396 47.5999 19.7396 47.9198C19.7411 48.5813 19.203 49.1386 18.5401 49.1386ZM140.065 44.5665C139.725 44.5665 139.388 44.4238 139.15 44.1446C138.937 43.8953 138.702 43.663 138.45 43.452C137.941 43.0278 137.872 42.2729 138.297 41.7646C138.722 41.2539 139.479 41.1892 139.988 41.6122C140.345 41.9096 140.678 42.2377 140.979 42.5901C141.409 43.0946 141.348 43.8508 140.842 44.28C140.616 44.4719 140.34 44.5665 140.065 44.5665ZM22.8935 42.6288C22.4214 42.6288 21.9737 42.3496 21.7826 41.887C21.5292 41.2747 21.8222 40.5748 22.4346 40.322C22.8682 40.1447 23.3162 40.002 23.7677 39.9024C24.415 39.7659 25.0562 40.1685 25.2004 40.8133C25.3433 41.4605 24.935 42.0991 24.2876 42.243C23.9718 42.3136 23.6559 42.412 23.3509 42.5377C23.2008 42.6001 23.0458 42.6288 22.8935 42.6288ZM132.455 42.1026H131.262C130.599 42.1026 130.061 41.5668 130.061 40.9041C130.061 40.2414 130.599 39.7056 131.262 39.7056H132.455C133.118 39.7056 133.656 40.2414 133.656 40.9041C133.656 41.5668 133.118 42.1026 132.455 42.1026ZM124.113 42.1026H122.922C122.259 42.1026 121.721 41.5668 121.721 40.9041C121.721 40.2414 122.259 39.7056 122.922 39.7056H124.113C124.776 39.7056 125.314 40.2414 125.314 40.9041C125.314 41.5668 124.776 42.1026 124.113 42.1026ZM115.772 42.1026H114.579C113.916 42.1026 113.378 41.5668 113.378 40.9041C113.378 40.2414 113.916 39.7056 114.579 39.7056H115.772C116.435 39.7056 116.973 40.2414 116.973 40.9041C116.973 41.5668 116.435 42.1026 115.772 42.1026ZM107.43 42.1026H106.239C105.576 42.1026 105.038 41.5668 105.038 40.9041C105.038 40.2414 105.576 39.7056 106.239 39.7056H107.43C108.093 39.7056 108.631 40.2414 108.631 40.9041C108.631 41.5668 108.093 42.1026 107.43 42.1026ZM99.0886 42.1026H97.8973C97.2344 42.1026 96.6963 41.5668 96.6963 40.9041C96.6963 40.2414 97.2344 39.7056 97.8973 39.7056H99.0886C99.7515 39.7056 100.29 40.2414 100.29 40.9041C100.29 41.5668 99.7515 42.1026 99.0886 42.1026ZM90.7471 42.1026H89.5558C88.8929 42.1026 88.3548 41.5668 88.3548 40.9041C88.3548 40.2414 88.8929 39.7056 89.5558 39.7056H90.7471C91.4099 39.7056 91.9481 40.2414 91.9481 40.9041C91.9481 41.5668 91.4099 42.1026 90.7471 42.1026ZM82.4055 42.1026H81.2142C80.5514 42.1026 80.0132 41.5668 80.0132 40.9041C80.0132 40.2414 80.5514 39.7056 81.2142 39.7056H82.4055C83.0684 39.7056 83.6065 40.2414 83.6065 40.9041C83.6065 41.5668 83.0684 42.1026 82.4055 42.1026ZM74.064 42.1026H72.8727C72.2098 42.1026 71.6717 41.5668 71.6717 40.9041C71.6717 40.2414 72.2098 39.7056 72.8727 39.7056H74.064C74.7269 39.7056 75.265 40.2414 75.265 40.9041C75.265 41.5668 74.7269 42.1026 74.064 42.1026ZM65.7225 42.1026H64.5312C63.8683 42.1026 63.3302 41.5668 63.3302 40.9041C63.3302 40.2414 63.8683 39.7056 64.5312 39.7056H65.7225C66.3854 39.7056 66.9235 40.2414 66.9235 40.9041C66.9235 41.5668 66.3854 42.1026 65.7225 42.1026ZM57.3798 42.1026H56.1885C55.5256 42.1026 54.9875 41.5668 54.9875 40.9041C54.9875 40.2414 55.5256 39.7056 56.1885 39.7056H57.3798C58.0427 39.7056 58.5808 40.2414 58.5808 40.9041C58.5808 41.5668 58.0439 42.1026 57.3798 42.1026ZM49.0395 42.1026H47.8482C47.1853 42.1026 46.6472 41.5668 46.6472 40.9041C46.6472 40.2414 47.1853 39.7056 47.8482 39.7056H49.0395C49.7024 39.7056 50.2405 40.2414 50.2405 40.9041C50.2405 41.5668 49.7026 42.1026 49.0395 42.1026ZM40.6968 42.1026H39.5055C38.8426 42.1026 38.3045 41.5668 38.3045 40.9041C38.3045 40.2414 38.8426 39.7056 39.5055 39.7056H40.6968C41.3597 39.7056 41.8978 40.2414 41.8978 40.9041C41.8978 41.5668 41.3611 42.1026 40.6968 42.1026ZM32.3564 42.1026H31.1651C30.5022 42.1026 29.9641 41.5668 29.9641 40.9041C29.9641 40.2414 30.5022 39.7056 31.1651 39.7056H32.3564C33.0193 39.7056 33.5574 40.2414 33.5574 40.9041C33.5574 41.5668 33.0196 42.1026 32.3564 42.1026Z" fill="#936B49"/>
<path d="M45.8116 71.9941H5.44182C2.88511 71.9941 0.811035 74.064 0.811035 76.6166V104.73C0.811035 107.283 2.88511 109.351 5.44182 109.351H45.8116C56.1491 109.351 64.5279 100.988 64.5279 90.6732C64.5279 80.3581 56.1488 71.9941 45.8116 71.9941Z" fill="#8D5F39"/>
<path d="M45.7682 100.218C51.0496 100.218 55.331 95.9451 55.331 90.6745C55.331 85.404 51.0496 81.1313 45.7682 81.1313C40.4868 81.1313 36.2054 85.404 36.2054 90.6745C36.2054 95.9451 40.4868 100.218 45.7682 100.218Z" fill="#654A34"/>
</g>
<defs>
<clipPath id="clip0_53_94">
<rect width="150.308" height="150" fill="white" transform="translate(0.811035)"/>
</clipPath>
</defs>
</svg>
